<?xml version="1.0" standalone="no"?>
<!DOCTYPE svg PUBLIC "-//W3C//DTD SVG 20010904//EN"
 "http://www.w3.org/TR/2001/REC-SVG-20010904/DTD/svg10.dtd">
<svg version="1.0" xmlns="http://www.w3.org/2000/svg"
 width="223.000000pt" height="200.000000pt" viewBox="0 0 223.000000 200.000000"
 preserveAspectRatio="xMidYMid meet">

<g transform="translate(0.000000,200.000000) scale(0.100000,-0.100000)"
fill="#000000" stroke="none">
<path d="M994 1900 c-260 -38 -498 -219 -612 -466 -16 -33 -33 -55 -50 -62
-20 -8 -21 -10 -4 -6 26 6 27 3 5 -78 -26 -97 -23 -281 6 -383 21 -75 21 -80
5 -92 -10 -7 -25 -13 -35 -13 -23 0 -67 46 -98 105 -24 46 -26 59 -26 172 0
67 -1 120 -3 118 -2 -2 -7 -29 -12 -62 -15 -115 19 -235 91 -318 l31 -35 -27
-35 c-41 -54 -65 -118 -72 -188 -7 -84 10 -152 56 -225 30 -46 51 -64 102 -92
61 -33 69 -35 169 -37 91 -1 113 -5 163 -28 32 -15 60 -25 63 -23 2 3 -21 15
-51 27 -30 13 -55 26 -55 29 0 4 38 22 85 41 78 31 88 33 124 22 34 -10 48 -8
98 8 41 14 96 21 189 24 116 4 141 8 232 39 121 42 192 83 277 160 59 54 63
56 78 40 23 -25 47 -87 47 -119 0 -15 -9 -47 -20 -70 -24 -54 -17 -56 10 -3
28 55 25 97 -11 168 l-32 61 35 43 c20 24 46 63 60 88 21 37 32 47 73 60 87
27 153 117 175 239 16 87 -7 211 -50 276 -11 17 -20 47 -20 69 0 32 -22 73
-136 253 -75 117 -146 220 -158 228 -37 27 -81 19 -113 -20 l-29 -35 -55 30
c-146 80 -337 115 -505 90z m268 -16 c20 -5 28 -14 33 -40 10 -56 0 -75 -38
-66 -37 8 -235 9 -287 2 -38 -5 -38 -5 -31 82 1 12 16 19 54 27 50 10 215 7
269 -5z m-387 -41 c-4 -10 -9 -36 -12 -58 -5 -38 -10 -43 -67 -74 -88 -49
-222 -187 -269 -278 -62 -119 -77 -198 -77 -402 0 -194 11 -257 58 -345 56
-103 180 -213 303 -270 70 -31 174 -58 208 -53 25 4 25 4 -4 6 -54 2 -161 38
-243 80 -172 90 -293 252 -309 414 -6 69 6 70 27 2 44 -141 188 -304 330 -374
47 -22 101 -43 120 -46 22 -4 7 5 -40 23 -179 67 -315 200 -391 380 -43 103
-48 174 -19 238 22 46 23 48 30 24 5 -14 8 -40 9 -59 2 -53 31 -160 59 -216
57 -114 123 -189 223 -255 173 -112 414 -115 592 -8 177 107 291 298 298 499
1 33 6 62 10 65 11 7 49 -102 49 -142 0 -19 -9 -63 -21 -97 -99 -296 -361
-480 -664 -465 -55 3 -89 2 -75 -2 14 -5 64 -8 111 -9 255 -3 494 149 602 382
19 40 39 83 46 97 10 21 11 15 6 -40 -9 -117 -96 -262 -207 -348 -113 -87
-248 -136 -418 -152 l-95 -9 100 4 c287 11 526 173 611 412 21 62 24 84 24
250 0 212 -12 278 -70 398 -61 125 -168 236 -287 301 -44 23 -53 33 -53 55 0
15 -5 40 -10 55 -6 15 -8 29 -5 32 2 3 47 -16 99 -41 84 -40 97 -50 117 -89
12 -24 51 -88 87 -143 36 -55 89 -139 119 -187 29 -48 67 -98 84 -111 28 -21
32 -32 39 -98 38 -325 -142 -647 -444 -793 -116 -56 -211 -77 -336 -75 -76 1
-111 -3 -167 -21 l-71 -23 -68 26 c-104 38 -113 40 -64 14 l44 -24 -42 -22
c-59 -30 -79 -27 -99 13 -21 46 -12 70 25 62 23 -5 22 -3 -8 12 -32 16 -36 22
-49 88 -11 53 -19 73 -35 80 -37 16 -137 147 -182 239 -55 111 -77 208 -76
345 0 164 39 298 127 430 82 123 216 237 343 291 79 34 86 35 77 12z m80 -144
l25 -39 -33 0 c-37 0 -48 15 -66 82 -11 43 -5 75 18 102 15 17 16 14 23 -44 5
-41 16 -76 33 -101z m395 80 c0 -21 -7 -57 -16 -79 -14 -36 -20 -40 -50 -40
l-34 0 25 38 c17 25 27 59 32 102 l6 63 19 -22 c10 -14 18 -39 18 -62z m351
34 c31 -34 79 -109 79 -123 0 -5 -14 -10 -30 -10 -30 0 -80 -37 -80 -60 0 -24
-17 -6 -57 59 -49 78 -52 97 -22 135 28 36 77 36 110 -1z m-430 -50 c13 -13 5
-43 -22 -77 -20 -25 -24 -26 -134 -26 l-114 0 -24 33 c-37 49 -40 66 -14 72
12 2 31 6 42 9 38 9 255 0 266 -11z m-390 -70 c10 -30 9 -38 -1 -41 -62 -21
-81 -113 -34 -157 l27 -25 241 0 c213 0 244 2 263 18 50 38 43 129 -12 154
-14 6 -25 15 -25 19 0 7 19 56 26 67 5 8 104 -51 155 -92 148 -117 256 -341
247 -511 l-3 -60 -41 75 c-22 41 -49 97 -59 123 -52 137 -195 174 -630 164
-187 -4 -243 -9 -298 -25 -78 -22 -134 -63 -159 -113 -74 -152 -102 -205 -110
-214 -7 -7 -9 20 -5 81 10 169 78 318 201 439 59 58 170 134 198 135 3 0 12
-17 19 -37z m926 -45 c11 -13 49 -68 84 -123 34 -55 68 -107 76 -116 21 -26
16 -77 -12 -104 -28 -29 -61 -32 -91 -7 -33 26 -184 273 -184 300 0 32 43 72
78 72 17 0 37 -9 49 -22z m-430 -30 c33 -31 32 -90 -3 -117 -25 -20 -39 -21
-259 -21 -220 0 -234 1 -259 21 -34 27 -37 88 -4 119 21 19 34 20 262 20 232
0 240 -1 263 -22z m641 -375 c21 -47 27 -77 30 -154 4 -84 1 -103 -20 -156
-14 -34 -36 -75 -49 -91 -41 -51 -142 -87 -124 -44 48 110 75 299 57 405 l-9
58 36 19 c20 11 40 19 44 20 4 0 20 -26 35 -57z m-1628 -480 c19 -43 19 -47 4
-64 -16 -18 -18 -18 -47 7 -20 16 -39 24 -53 21 -19 -3 -22 -1 -14 13 11 21
68 70 80 70 5 0 18 -21 30 -47z m-50 -69 c29 -25 32 -25 49 -10 18 17 41 21
41 9 0 -5 18 -32 41 -62 l41 -54 -31 -60 c-33 -63 -37 -92 -22 -145 9 -29 8
-32 -12 -33 -21 0 -21 -1 3 -11 34 -14 112 -15 127 -2 8 8 -2 10 -38 6 -48 -4
-49 -4 -64 31 -20 47 -19 83 4 132 31 68 44 72 85 28 41 -45 69 -151 46 -178
-11 -13 -10 -14 4 -9 12 5 16 0 16 -18 0 -13 7 -33 15 -44 20 -27 18 -41 -7
-47 -31 -9 -58 10 -65 44 -3 16 -9 29 -13 29 -11 0 0 -42 16 -61 18 -21 8 -29
-36 -29 -29 0 -39 5 -53 29 -9 16 -17 37 -18 48 0 10 -3 13 -6 5 -3 -7 0 -27
6 -44 6 -17 9 -33 6 -36 -3 -3 -22 0 -44 6 -49 15 -70 56 -51 101 8 21 17 28
28 24 10 -2 2 9 -16 27 -64 60 -86 145 -58 220 25 66 27 75 12 49 -12 -21 -21
-26 -43 -22 -26 3 -26 3 -5 -6 24 -11 25 -14 16 -59 -5 -23 -13 -32 -34 -37
-15 -3 -36 -15 -46 -26 -26 -28 -34 -23 -34 21 0 52 17 87 49 100 l26 10 -27
-4 c-24 -3 -28 0 -28 21 0 27 50 83 73 83 9 0 29 -12 47 -26z m-23 -222 c9
-35 7 -41 -19 -70 -15 -18 -28 -39 -28 -47 0 -25 -18 -17 -35 15 -28 53 -15
113 28 130 37 15 44 11 54 -28z m43 -87 c22 -23 23 -29 12 -58 -7 -19 -12 -43
-12 -55 0 -30 -16 -28 -51 7 -35 36 -38 75 -7 108 27 29 29 29 58 -2z"/>
<path d="M1738 1585 c-9 -20 -8 -28 6 -44 19 -21 36 -22 60 -2 20 17 20 35 0
55 -23 24 -53 20 -66 -9z m57 -19 c0 -22 -14 -29 -34 -17 -19 12 -6 43 16 39
10 -2 18 -12 18 -22z"/>
<path d="M1817 1498 c-26 -14 -21 -56 8 -70 32 -14 57 5 53 40 -3 28 -36 45
-61 30z m42 -22 c9 -10 8 -16 -4 -26 -19 -16 -41 1 -32 24 8 20 21 20 36 2z"/>
<path d="M1872 1383 c-15 -28 3 -63 31 -63 36 0 53 24 39 55 -14 30 -57 34
-70 8z m58 -18 c0 -9 -7 -18 -16 -22 -18 -7 -39 11 -30 26 11 17 46 13 46 -4z"/>
<path d="M274 1346 c-26 -19 -70 -84 -78 -116 -4 -14 3 -6 15 18 12 23 37 58
56 77 38 38 40 43 7 21z"/>
<path d="M1680 263 c-25 -20 -81 -53 -125 -75 -44 -21 -69 -36 -55 -32 43 11
153 73 195 109 52 45 42 44 -15 -2z"/>
<path d="M762 145 c3 -3 47 -15 99 -27 76 -17 125 -21 254 -21 88 0 178 5 200
11 37 10 35 11 -20 4 -122 -13 -335 -5 -435 17 -103 23 -106 23 -98 16z"/>
<path d="M1400 135 c-25 -7 -36 -13 -25 -13 11 0 38 5 60 13 52 17 24 17 -35
0z"/>
</g>
</svg>
